<?xml version="1.0" encoding="UTF-8"?>
<svg width="59px" height="59px" viewBox="0 0 59 59" version="1.1" xmlns="http://www.w3.org/2000/svg" xmlns:xlink="http://www.w3.org/1999/xlink">
    <!-- Generator: Sketch 50.2 (55047) - http://www.bohemiancoding.com/sketch -->
    <title>DownloadCV</title>
    <desc>Created with Sketch.</desc>
    <defs></defs>
    <g id="Design---Web" stroke="none" stroke-width="1" fill="none" fill-rule="evenodd">
        <g id="Web---after-choose-the-recruiting-designer" transform="translate(-284.000000, -318.000000)">
            <g id="DownloadCV" transform="translate(284.000000, 317.000000)">
                <circle id="Oval" fill="#1FDAB0" cx="29.5" cy="30.5" r="29.5"></circle>
                <polygon id="Path-28" stroke="#D8D8D8" fill="#FFFFFF" stroke-linecap="round" stroke-linejoin="round" points="7 17.7176294 25.2896429 51 49 38.1090513 31.1192771 5"></polygon>
                <rect id="Rectangle-27" fill="#D8D8D8" transform="translate(35.000000, 28.500000) rotate(-28.000000) translate(-35.000000, -28.500000) " x="31" y="16" width="8" height="25"></rect>
                <path d="M45.1353902,24.8777858 C43.5917848,24.122912 42.4597439,23.8549176 41.7392677,24.0738026 L45.1353902,30.18497 C41.7601294,29.6423966 39.6251489,29.6423966 38.7304487,30.18497 C37.3883985,30.9988301 37.9215577,33.1338835 40.1165271,33.1338835 C42.3114964,33.1338835 42.8689434,33.4649737 43.414513,34.4032872 C43.9600825,35.3416008 44.1164734,37.6235863 47.1684074,38.9192828 C50.2203414,40.2149793 45.2162644,44.1060386 48.5677659,44.7972318 C51.9192673,45.4884251 51.8181085,44.3806546 52.7177305,41.9605124 C53.6173525,39.5403702 52.2017254,36.5713538 50.7880163,32.4500611 C49.3743072,28.3287684 47.4507983,26.0100965 45.1353902,24.8777858 Z" id="Path-29" fill="#F6E6CE"></path>
                <g id="Group-13" transform="translate(24.000000, 34.000000) rotate(-28.000000) translate(-24.000000, -34.000000) translate(19.000000, 20.000000)" stroke="#D8D8D8" stroke-linecap="round" stroke-linejoin="round">
                    <g id="Group-12">
                        <path d="M1,3 L9,3" id="Line-3"></path>
                        <path d="M1,7 L9,7" id="Line-3"></path>
                        <path d="M1,11 L9,11" id="Line-3"></path>
                    </g>
                    <g id="Group-12" transform="translate(0.000000, 14.000000)">
                        <path d="M1,3 L9,3" id="Line-3"></path>
                        <path d="M1,7 L9,7" id="Line-3"></path>
                        <path d="M1,11 L9,11" id="Line-3"></path>
                    </g>
                </g>
                <path d="M24.8197898,37 L27.2920955,41.6500738 C22.4228494,40.9680443 19.5590666,40.8942989 18.700747,41.4288376 C17.4132676,42.2306457 17.9247473,44.3340821 20.0304642,44.3340821 C22.136181,44.3340821 22.6709608,44.6602693 23.1943463,45.5846879 C23.7177318,46.5091065 23.8677634,48.7572992 26.7955987,50.0338084 C29.7234339,51.3103176 24.9228344,55.1437562 28.138056,55.8247139 C31.3532776,56.5056716 32.7692731,55.1437562 33.6323144,52.7594526 C34.4953557,50.3751491 33.8888187,47.765907 31.283127,43.1618803 C29.5459993,40.0925292 27.3915536,38.0385691 24.8197898,37 Z" id="Path-29" fill="#F6E6CE" transform="translate(26.000000, 46.500000) scale(-1, 1) rotate(57.000000) translate(-26.000000, -46.500000) "></path>
                <path d="M38,31.0078165 C38,32.0067686 39.1401526,31.9999994 39.3913271,31.9999994 C39.5470067,31.9999994 40.6006363,30.9788142 39.5148544,30.0397847 C39.3809944,29.9240169 38,30.0088644 38,31.0078165 Z" id="Path-30" fill="#EC9F9F"></path>
                <path d="M25,38.9949575 C25.1470691,38.6072018 25.3183282,38.3422383 25.5137773,38.2000671 C25.806951,37.9868103 26.1572893,37.9190307 26.5220686,38.120813 C26.8868478,38.3225952 27.0493746,38.8218017 26.9869445,39.3233276 C26.9453244,39.6576782 26.8802182,39.8711385 26.7916257,39.9637085 C26.4217026,40.0292195 26.0452888,39.9719075 25.6623843,39.7917724 C25.2794799,39.6116373 25.0586851,39.3460324 25,38.9949575 Z" id="Path-31" fill="#EC9F9F"></path>
                <text id="…" transform="translate(15.550339, 13.039479) rotate(-28.000000) translate(-15.550339, -13.039479) " font-family=".AppleSystemUIFont" font-size="18" font-weight="normal" fill="#D8D8D8">
                    <tspan x="7.55033877" y="19.539479">…</tspan>
                </text>
            </g>
        </g>
    </g>
</svg>